<svg width="61" height="22" viewBox="0 0 61 22" fill="none" xmlns="http://www.w3.org/2000/svg">
<path d="M12.364 16.096V19H0.726V16.69L6.666 11.08C7.29667 10.4787 7.722 9.96533 7.942 9.54C8.162 9.1 8.272 8.66733 8.272 8.242C8.272 7.626 8.05933 7.15667 7.634 6.834C7.22333 6.49667 6.61467 6.328 5.808 6.328C5.13333 6.328 4.52467 6.46 3.982 6.724C3.43933 6.97333 2.98467 7.35467 2.618 7.868L0.022 6.196C0.623333 5.30133 1.452 4.60467 2.508 4.106C3.564 3.59267 4.774 3.336 6.138 3.336C7.282 3.336 8.27933 3.52667 9.13 3.908C9.99533 4.27467 10.6627 4.80267 11.132 5.492C11.616 6.16667 11.858 6.966 11.858 7.89C11.858 8.726 11.682 9.51067 11.33 10.244C10.978 10.9773 10.296 11.8133 9.284 12.752L5.742 16.096H12.364ZM19.1146 9.386C21.2852 9.386 22.8839 9.81867 23.9106 10.684C24.9519 11.5493 25.4726 12.708 25.4726 14.16C25.4726 15.0987 25.2379 15.9567 24.7686 16.734C24.2992 17.4967 23.5806 18.1127 22.6126 18.582C21.6592 19.0367 20.4786 19.264 19.0706 19.264C17.9852 19.264 16.9146 19.1247 15.8586 18.846C14.8172 18.5527 13.9299 18.142 13.1966 17.614L14.6046 14.886C15.1912 15.326 15.8659 15.6707 16.6286 15.92C17.3912 16.1547 18.1759 16.272 18.9826 16.272C19.8772 16.272 20.5812 16.096 21.0946 15.744C21.6079 15.392 21.8646 14.9007 21.8646 14.27C21.8646 13.61 21.5932 13.1113 21.0506 12.774C20.5226 12.4367 19.5986 12.268 18.2786 12.268H14.3406L15.1326 3.6H24.5266V6.46H18.1026L17.8606 9.386H19.1146ZM33.5185 19.264C32.2425 19.264 31.1059 18.9487 30.1085 18.318C29.1112 17.6873 28.3265 16.778 27.7545 15.59C27.1972 14.3873 26.9185 12.9573 26.9185 11.3C26.9185 9.64267 27.1972 8.22 27.7545 7.032C28.3265 5.82933 29.1112 4.91267 30.1085 4.282C31.1059 3.65133 32.2425 3.336 33.5185 3.336C34.7945 3.336 35.9312 3.65133 36.9285 4.282C37.9259 4.91267 38.7032 5.82933 39.2605 7.032C39.8325 8.22 40.1185 9.64267 40.1185 11.3C40.1185 12.9573 39.8325 14.3873 39.2605 15.59C38.7032 16.778 37.9259 17.6873 36.9285 18.318C35.9312 18.9487 34.7945 19.264 33.5185 19.264ZM33.5185 16.25C34.4572 16.25 35.1905 15.8467 35.7185 15.04C36.2612 14.2333 36.5325 12.9867 36.5325 11.3C36.5325 9.61333 36.2612 8.36667 35.7185 7.56C35.1905 6.75333 34.4572 6.35 33.5185 6.35C32.5945 6.35 31.8612 6.75333 31.3185 7.56C30.7905 8.36667 30.5265 9.61333 30.5265 11.3C30.5265 12.9867 30.7905 14.2333 31.3185 15.04C31.8612 15.8467 32.5945 16.25 33.5185 16.25ZM60.6427 14.49C60.6427 15.6927 60.2027 16.7267 59.3227 17.592C58.4427 18.4427 57.174 18.9707 55.5167 19.176V21.64H53.3167V19.242C52.2313 19.1833 51.1973 18.9927 50.2147 18.67C49.232 18.3473 48.44 17.9513 47.8387 17.482L49.0487 14.798C49.606 15.2087 50.2587 15.5533 51.0067 15.832C51.7547 16.1107 52.5247 16.2867 53.3167 16.36V12.686C52.2753 12.4367 51.3953 12.158 50.6767 11.85C49.958 11.542 49.3567 11.0947 48.8727 10.508C48.3887 9.90667 48.1467 9.11467 48.1467 8.132C48.1467 6.91467 48.5867 5.87333 49.4667 5.008C50.3613 4.128 51.6447 3.59267 53.3167 3.402V0.959999H55.5167V3.358C57.3207 3.50467 58.8093 3.952 59.9827 4.7L58.8827 7.406C57.7827 6.77533 56.6607 6.394 55.5167 6.262V10.002C56.5433 10.2367 57.4087 10.508 58.1127 10.816C58.8313 11.1093 59.4327 11.5567 59.9167 12.158C60.4007 12.7447 60.6427 13.522 60.6427 14.49ZM51.6887 7.956C51.6887 8.32267 51.828 8.62333 52.1067 8.858C52.3853 9.09267 52.7887 9.29067 53.3167 9.452V6.328C52.7593 6.46 52.3487 6.67267 52.0847 6.966C51.8207 7.24467 51.6887 7.57467 51.6887 7.956ZM55.5167 16.272C56.0447 16.1547 56.4407 15.964 56.7047 15.7C56.9687 15.436 57.1007 15.1207 57.1007 14.754C57.1007 14.3873 56.9613 14.0867 56.6827 13.852C56.4187 13.6173 56.03 13.412 55.5167 13.236V16.272Z" fill="#006DAB"/>
</svg>
