<svg width="142" height="32" viewBox="0 0 142 32" fill="none" xmlns="http://www.w3.org/2000/svg">
<path d="M13.63 25.35C11.7633 25.35 10.025 25.0467 8.415 24.44C6.82833 23.81 5.44 22.935 4.25 21.815C3.08333 20.6717 2.17333 19.33 1.52 17.79C0.866667 16.25 0.54 14.57 0.54 12.75C0.54 10.93 0.866667 9.25 1.52 7.71C2.17333 6.17 3.095 4.84 4.285 3.72C5.475 2.57667 6.86333 1.70167 8.45 1.095C10.0367 0.464999 11.775 0.149999 13.665 0.149999C15.6717 0.149999 17.5033 0.499999 19.16 1.2C20.8167 1.87667 22.2167 2.89167 23.36 4.245L20.42 7.01C19.5333 6.05333 18.5417 5.34167 17.445 4.875C16.3483 4.385 15.1583 4.14 13.875 4.14C12.5917 4.14 11.4133 4.35 10.34 4.77C9.29 5.19 8.36833 5.785 7.575 6.555C6.805 7.325 6.19833 8.235 5.755 9.285C5.335 10.335 5.125 11.49 5.125 12.75C5.125 14.01 5.335 15.165 5.755 16.215C6.19833 17.265 6.805 18.175 7.575 18.945C8.36833 19.715 9.29 20.31 10.34 20.73C11.4133 21.15 12.5917 21.36 13.875 21.36C15.1583 21.36 16.3483 21.1267 17.445 20.66C18.5417 20.17 19.5333 19.435 20.42 18.455L23.36 21.255C22.2167 22.585 20.8167 23.6 19.16 24.3C17.5033 25 15.66 25.35 13.63 25.35ZM38.6438 25V21.22L38.3988 20.415V13.8C38.3988 12.5167 38.0138 11.525 37.2438 10.825C36.4738 10.1017 35.3071 9.74 33.7438 9.74C32.6938 9.74 31.6555 9.90333 30.6288 10.23C29.6255 10.5567 28.7738 11.0117 28.0738 11.595L26.3588 8.41C27.3621 7.64 28.5521 7.06833 29.9288 6.695C31.3288 6.29833 32.7755 6.1 34.2688 6.1C36.9755 6.1 39.0638 6.75333 40.5338 8.06C42.0271 9.34333 42.7738 11.3383 42.7738 14.045V25H38.6438ZM32.7638 25.245C31.3638 25.245 30.1388 25.0117 29.0888 24.545C28.0388 24.055 27.2221 23.39 26.6388 22.55C26.0788 21.6867 25.7988 20.7183 25.7988 19.645C25.7988 18.595 26.0438 17.65 26.5338 16.81C27.0471 15.97 27.8755 15.305 29.0188 14.815C30.1621 14.325 31.6788 14.08 33.5688 14.08H38.9938V16.985H33.8838C32.3905 16.985 31.3871 17.23 30.8738 17.72C30.3605 18.1867 30.1038 18.77 30.1038 19.47C30.1038 20.2633 30.4188 20.8933 31.0488 21.36C31.6788 21.8267 32.5538 22.06 33.6738 22.06C34.7471 22.06 35.7038 21.815 36.5438 21.325C37.4071 20.835 38.0255 20.1117 38.3988 19.155L39.1338 21.78C38.7138 22.8767 37.9555 23.7283 36.8588 24.335C35.7855 24.9417 34.4205 25.245 32.7638 25.245ZM71.9786 6.1C73.4719 6.1 74.7902 6.39167 75.9336 6.975C77.1002 7.55833 78.0102 8.45667 78.6636 9.67C79.3169 10.86 79.6436 12.4 79.6436 14.29V25H75.2686V14.85C75.2686 13.1933 74.9069 11.9567 74.1836 11.14C73.4602 10.3233 72.4219 9.915 71.0686 9.915C70.1119 9.915 69.2602 10.125 68.5136 10.545C67.7902 10.965 67.2186 11.5833 66.7986 12.4C66.4019 13.2167 66.2036 14.255 66.2036 15.515V25H61.8286V14.85C61.8286 13.1933 61.4669 11.9567 60.7436 11.14C60.0202 10.3233 58.9819 9.915 57.6286 9.915C56.6719 9.915 55.8202 10.125 55.0736 10.545C54.3502 10.965 53.7786 11.5833 53.3586 12.4C52.9619 13.2167 52.7636 14.255 52.7636 15.515V25H48.3886V6.31H52.5536V11.28L51.8186 9.81C52.4486 8.59667 53.3586 7.675 54.5486 7.045C55.7619 6.415 57.1386 6.1 58.6786 6.1C60.4286 6.1 61.9452 6.53167 63.2286 7.395C64.5352 8.25833 65.3986 9.565 65.8186 11.315L64.1036 10.72C64.7102 9.32 65.7136 8.2 67.1136 7.36C68.5136 6.52 70.1352 6.1 71.9786 6.1ZM95.5943 25.245C94.0776 25.245 92.6893 24.895 91.4293 24.195C90.1926 23.495 89.2009 22.445 88.4543 21.045C87.7309 19.6217 87.3693 17.825 87.3693 15.655C87.3693 13.4617 87.7193 11.665 88.4193 10.265C89.1426 8.865 90.1226 7.82667 91.3593 7.15C92.5959 6.45 94.0076 6.1 95.5943 6.1C97.4376 6.1 99.0593 6.49667 100.459 7.29C101.883 8.08333 103.003 9.19167 103.819 10.615C104.659 12.0383 105.079 13.7183 105.079 15.655C105.079 17.5917 104.659 19.2833 103.819 20.73C103.003 22.1533 101.883 23.2617 100.459 24.055C99.0593 24.8483 97.4376 25.245 95.5943 25.245ZM85.2343 31.79V6.31H89.3993V10.72L89.2593 15.69L89.6093 20.66V31.79H85.2343ZM95.1043 21.5C96.1543 21.5 97.0876 21.2667 97.9043 20.8C98.7443 20.3333 99.4093 19.6567 99.8993 18.77C100.389 17.8833 100.634 16.845 100.634 15.655C100.634 14.4417 100.389 13.4033 99.8993 12.54C99.4093 11.6533 98.7443 10.9767 97.9043 10.51C97.0876 10.0433 96.1543 9.81 95.1043 9.81C94.0543 9.81 93.1093 10.0433 92.2693 10.51C91.4293 10.9767 90.7643 11.6533 90.2743 12.54C89.7843 13.4033 89.5393 14.4417 89.5393 15.655C89.5393 16.845 89.7843 17.8833 90.2743 18.77C90.7643 19.6567 91.4293 20.3333 92.2693 20.8C93.1093 21.2667 94.0543 21.5 95.1043 21.5ZM118.013 25.245C115.937 25.245 114.117 24.8367 112.553 24.02C111.013 23.18 109.812 22.0367 108.948 20.59C108.108 19.1433 107.688 17.4983 107.688 15.655C107.688 13.7883 108.097 12.1433 108.913 10.72C109.753 9.27333 110.897 8.14167 112.343 7.325C113.813 6.50833 115.482 6.1 117.348 6.1C119.168 6.1 120.79 6.49667 122.213 7.29C123.637 8.08333 124.757 9.20333 125.573 10.65C126.39 12.0967 126.798 13.8 126.798 15.76C126.798 15.9467 126.787 16.1567 126.763 16.39C126.763 16.6233 126.752 16.845 126.728 17.055H111.153V14.15H124.418L122.703 15.06C122.727 13.9867 122.505 13.0417 122.038 12.225C121.572 11.4083 120.93 10.7667 120.113 10.3C119.32 9.83333 118.398 9.6 117.348 9.6C116.275 9.6 115.33 9.83333 114.513 10.3C113.72 10.7667 113.09 11.42 112.623 12.26C112.18 13.0767 111.958 14.045 111.958 15.165V15.865C111.958 16.985 112.215 17.9767 112.728 18.84C113.242 19.7033 113.965 20.3683 114.898 20.835C115.832 21.3017 116.905 21.535 118.118 21.535C119.168 21.535 120.113 21.3717 120.953 21.045C121.793 20.7183 122.54 20.205 123.193 19.505L125.538 22.2C124.698 23.18 123.637 23.9383 122.353 24.475C121.093 24.9883 119.647 25.245 118.013 25.245ZM131.001 25V6.31H135.166V11.455L134.676 9.95C135.236 8.69 136.111 7.73333 137.301 7.08C138.514 6.42667 140.019 6.1 141.816 6.1V10.265C141.629 10.2183 141.454 10.195 141.291 10.195C141.128 10.1717 140.964 10.16 140.801 10.16C139.144 10.16 137.826 10.65 136.846 11.63C135.866 12.5867 135.376 14.0217 135.376 15.935V25H131.001Z" fill="#006DAB"/>
</svg>
