<svg width="30" height="30" viewBox="0 0 30 30" fill="none" xmlns="http://www.w3.org/2000/svg">
<path d="M11.2501 26.6667C12.4007 26.6667 13.3334 25.7339 13.3334 24.5833C13.3334 23.4327 12.4007 22.5 11.2501 22.5C10.0995 22.5 9.16675 23.4327 9.16675 24.5833C9.16675 25.7339 10.0995 26.6667 11.2501 26.6667Z" fill="#006DAB"/>
<path d="M22.0833 26.6667C23.2339 26.6667 24.1667 25.7339 24.1667 24.5833C24.1667 23.4327 23.2339 22.5 22.0833 22.5C20.9327 22.5 20 23.4327 20 24.5833C20 25.7339 20.9327 26.6667 22.0833 26.6667Z" fill="#006DAB"/>
<path d="M27.5832 5.32494C27.5056 5.22409 27.4059 5.14237 27.2918 5.08603C27.1777 5.0297 27.0522 5.00025 26.9249 4.99994H7.67491L7.29991 3.80827C7.25872 3.68032 7.18718 3.56423 7.09141 3.46991C6.99564 3.37559 6.87847 3.30584 6.74991 3.26661L3.33324 2.21661C3.22818 2.18432 3.1178 2.17305 3.00838 2.18343C2.89897 2.1938 2.79267 2.22563 2.69555 2.27709C2.49942 2.38102 2.35261 2.5586 2.28741 2.77077C2.22221 2.98295 2.24397 3.21233 2.34789 3.40846C2.45182 3.60459 2.6294 3.75141 2.84158 3.81661L5.83324 4.73327L9.64991 16.7916L8.29157 17.9083L8.18324 18.0166C7.84732 18.4056 7.657 18.8992 7.64484 19.413C7.63268 19.9268 7.79944 20.4288 8.11657 20.8333C8.34371 21.1095 8.63233 21.3287 8.95936 21.4734C9.28638 21.6181 9.64274 21.6843 9.99991 21.6666H23.9082C24.1293 21.6666 24.3412 21.5788 24.4975 21.4225C24.6538 21.2663 24.7416 21.0543 24.7416 20.8333C24.7416 20.6123 24.6538 20.4003 24.4975 20.244C24.3412 20.0877 24.1293 19.9999 23.9082 19.9999H9.86657C9.77061 19.9967 9.67712 19.9687 9.59512 19.9187C9.51313 19.8688 9.4454 19.7985 9.39849 19.7147C9.35157 19.631 9.32706 19.5365 9.3273 19.4405C9.32755 19.3445 9.35256 19.2501 9.39991 19.1666L11.4082 17.4999H24.2666C24.4569 17.5055 24.6435 17.4457 24.7951 17.3304C24.9467 17.2152 25.0543 17.0515 25.0999 16.8666L27.7666 6.03327C27.7919 5.90904 27.7886 5.78066 27.7568 5.65791C27.725 5.53516 27.6657 5.42128 27.5832 5.32494Z" fill="#006DAB"/>
</svg>
