<svg width="138" height="18" viewBox="0 0 138 18" fill="none" xmlns="http://www.w3.org/2000/svg">
<path d="M9.342 1.33741C10.95 1.33741 12.384 1.67341 13.644 2.34541C14.916 3.00541 15.906 3.94141 16.614 5.15341C17.322 6.35341 17.676 7.72741 17.676 9.27541C17.676 10.7994 17.412 11.9934 16.884 12.8574C16.356 13.7094 15.624 14.1354 14.688 14.1354C14.1 14.1354 13.62 13.9614 13.248 13.6134C12.888 13.2654 12.69 12.7854 12.654 12.1734C12.294 12.7974 11.802 13.2834 11.178 13.6314C10.554 13.9674 9.846 14.1354 9.054 14.1354C8.214 14.1354 7.452 13.9374 6.768 13.5414C6.096 13.1334 5.562 12.5754 5.166 11.8674C4.782 11.1594 4.59 10.3614 4.59 9.47341C4.59 8.58541 4.782 7.79341 5.166 7.09741C5.562 6.38941 6.096 5.83741 6.768 5.44141C7.452 5.04541 8.214 4.84741 9.054 4.84741C9.822 4.84741 10.512 5.01541 11.124 5.35141C11.748 5.67541 12.246 6.13741 12.618 6.73741V4.91941H13.788V11.7414C13.788 12.2214 13.89 12.5694 14.094 12.7854C14.298 13.0014 14.568 13.1094 14.904 13.1094C15.468 13.1094 15.912 12.7734 16.236 12.1014C16.572 11.4294 16.74 10.4934 16.74 9.29341C16.74 7.90141 16.428 6.67741 15.804 5.62141C15.18 4.55341 14.304 3.72541 13.176 3.13741C12.06 2.54941 10.782 2.25541 9.342 2.25541C7.89 2.25541 6.6 2.56141 5.472 3.17341C4.356 3.77341 3.486 4.62541 2.862 5.72941C2.238 6.82141 1.926 8.06941 1.926 9.47341C1.926 10.8774 2.232 12.1314 2.844 13.2354C3.468 14.3394 4.332 15.1974 5.436 15.8094C6.552 16.4214 7.83 16.7274 9.27 16.7274C9.834 16.7274 10.422 16.6614 11.034 16.5294C11.658 16.3974 12.222 16.1994 12.726 15.9354L13.032 16.8174C12.516 17.0814 11.916 17.2854 11.232 17.4294C10.56 17.5734 9.906 17.6454 9.27 17.6454C7.638 17.6454 6.192 17.2974 4.932 16.6014C3.672 15.9054 2.688 14.9394 1.98 13.7034C1.284 12.4554 0.936 11.0454 0.936 9.47341C0.936 7.88941 1.29 6.48541 1.998 5.26141C2.706 4.02541 3.696 3.06541 4.968 2.38141C6.252 1.68541 7.71 1.33741 9.342 1.33741ZM9.216 13.0914C9.864 13.0914 10.446 12.9414 10.962 12.6414C11.478 12.3414 11.886 11.9214 12.186 11.3814C12.486 10.8294 12.636 10.1934 12.636 9.47341C12.636 8.76541 12.486 8.14141 12.186 7.60141C11.886 7.04941 11.478 6.62941 10.962 6.34141C10.446 6.04141 9.864 5.89141 9.216 5.89141C8.556 5.89141 7.962 6.04141 7.434 6.34141C6.918 6.64141 6.51 7.06141 6.21 7.60141C5.922 8.14141 5.778 8.76541 5.778 9.47341C5.778 10.1814 5.922 10.8114 6.21 11.3634C6.51 11.9034 6.918 12.3294 7.434 12.6414C7.962 12.9414 8.556 13.0914 9.216 13.0914ZM20.6497 1.44541H21.9817V12.8934H29.0377V14.0454H20.6497V1.44541ZM34.7086 14.1354C33.7966 14.1354 32.9746 13.9314 32.2426 13.5234C31.5106 13.1034 30.9346 12.5274 30.5146 11.7954C30.0946 11.0634 29.8846 10.2354 29.8846 9.31141C29.8846 8.38741 30.0946 7.55941 30.5146 6.82741C30.9346 6.09541 31.5106 5.52541 32.2426 5.11741C32.9746 4.70941 33.7966 4.50541 34.7086 4.50541C35.6206 4.50541 36.4426 4.70941 37.1746 5.11741C37.9066 5.52541 38.4766 6.09541 38.8846 6.82741C39.3046 7.55941 39.5146 8.38741 39.5146 9.31141C39.5146 10.2354 39.3046 11.0634 38.8846 11.7954C38.4766 12.5274 37.9066 13.1034 37.1746 13.5234C36.4426 13.9314 35.6206 14.1354 34.7086 14.1354ZM34.7086 13.0014C35.3806 13.0014 35.9806 12.8514 36.5086 12.5514C37.0486 12.2394 37.4686 11.8014 37.7686 11.2374C38.0686 10.6734 38.2186 10.0314 38.2186 9.31141C38.2186 8.59141 38.0686 7.94941 37.7686 7.38541C37.4686 6.82141 37.0486 6.38941 36.5086 6.08941C35.9806 5.77741 35.3806 5.62141 34.7086 5.62141C34.0366 5.62141 33.4306 5.77741 32.8906 6.08941C32.3626 6.38941 31.9426 6.82141 31.6306 7.38541C31.3306 7.94941 31.1806 8.59141 31.1806 9.31141C31.1806 10.0314 31.3306 10.6734 31.6306 11.2374C31.9426 11.8014 32.3626 12.2394 32.8906 12.5514C33.4306 12.8514 34.0366 13.0014 34.7086 13.0014ZM43.3478 6.43141C43.6478 5.79541 44.0918 5.31541 44.6798 4.99141C45.2798 4.66741 46.0178 4.50541 46.8938 4.50541V5.74741L46.5878 5.72941C45.5918 5.72941 44.8118 6.03541 44.2478 6.64741C43.6838 7.25941 43.4018 8.11741 43.4018 9.22141V14.0454H42.1238V4.57741H43.3478V6.43141ZM57.3639 9.70741H49.4439C49.5159 10.6914 49.8939 11.4894 50.5779 12.1014C51.2619 12.7014 52.1259 13.0014 53.1699 13.0014C53.7579 13.0014 54.2979 12.8994 54.7899 12.6954C55.2819 12.4794 55.7079 12.1674 56.0679 11.7594L56.7879 12.5874C56.3679 13.0914 55.8399 13.4754 55.2039 13.7394C54.5799 14.0034 53.8899 14.1354 53.1339 14.1354C52.1619 14.1354 51.2979 13.9314 50.5419 13.5234C49.7979 13.1034 49.2159 12.5274 48.7959 11.7954C48.3759 11.0634 48.1659 10.2354 48.1659 9.31141C48.1659 8.38741 48.3639 7.55941 48.7599 6.82741C49.1679 6.09541 49.7199 5.52541 50.4159 5.11741C51.1239 4.70941 51.9159 4.50541 52.7919 4.50541C53.6679 4.50541 54.4539 4.70941 55.1499 5.11741C55.8459 5.52541 56.3919 6.09541 56.7879 6.82741C57.1839 7.54741 57.3819 8.37541 57.3819 9.31141L57.3639 9.70741ZM52.7919 5.60341C51.8799 5.60341 51.1119 5.89741 50.4879 6.48541C49.8759 7.06141 49.5279 7.81741 49.4439 8.75341H56.1579C56.0739 7.81741 55.7199 7.06141 55.0959 6.48541C54.4839 5.89741 53.7159 5.60341 52.7919 5.60341ZM71.7912 4.50541C72.9792 4.50541 73.9092 4.84741 74.5812 5.53141C75.2652 6.21541 75.6072 7.22341 75.6072 8.55541V14.0454H74.3292V8.68141C74.3292 7.69741 74.0892 6.94741 73.6092 6.43141C73.1412 5.91541 72.4752 5.65741 71.6112 5.65741C70.6272 5.65741 69.8532 5.96341 69.2892 6.57541C68.7252 7.17541 68.4432 8.00941 68.4432 9.07741V14.0454H67.1652V8.68141C67.1652 7.69741 66.9252 6.94741 66.4452 6.43141C65.9772 5.91541 65.3052 5.65741 64.4292 5.65741C63.4572 5.65741 62.6832 5.96341 62.1072 6.57541C61.5432 7.17541 61.2612 8.00941 61.2612 9.07741V14.0454H59.9832V4.57741H61.2072V6.30541C61.5432 5.72941 62.0112 5.28541 62.6112 4.97341C63.2112 4.66141 63.9012 4.50541 64.6812 4.50541C65.4732 4.50541 66.1572 4.67341 66.7332 5.00941C67.3212 5.34541 67.7592 5.84341 68.0472 6.50341C68.3952 5.87941 68.8932 5.39341 69.5412 5.04541C70.2012 4.68541 70.9512 4.50541 71.7912 4.50541ZM83.784 4.57741H85.062V14.0454H83.784V4.57741ZM84.432 2.50741C84.168 2.50741 83.946 2.41741 83.766 2.23741C83.586 2.05741 83.496 1.84141 83.496 1.58941C83.496 1.34941 83.586 1.13941 83.766 0.959409C83.946 0.779409 84.168 0.689409 84.432 0.689409C84.696 0.689409 84.918 0.779409 85.098 0.959409C85.278 1.12741 85.368 1.33141 85.368 1.57141C85.368 1.83541 85.278 2.05741 85.098 2.23741C84.918 2.41741 84.696 2.50741 84.432 2.50741ZM93.4959 4.50541C94.3839 4.50541 95.1879 4.70941 95.9079 5.11741C96.6279 5.51341 97.1919 6.07741 97.5999 6.80941C98.0079 7.54141 98.2119 8.37541 98.2119 9.31141C98.2119 10.2594 98.0079 11.0994 97.5999 11.8314C97.1919 12.5634 96.6279 13.1334 95.9079 13.5414C95.1999 13.9374 94.3959 14.1354 93.4959 14.1354C92.7279 14.1354 92.0319 13.9794 91.4079 13.6674C90.7959 13.3434 90.2919 12.8754 89.8959 12.2634V17.5374H88.6179V4.57741H89.8419V6.44941C90.2259 5.82541 90.7299 5.34541 91.3539 5.00941C91.9899 4.67341 92.7039 4.50541 93.4959 4.50541ZM93.4059 13.0014C94.0659 13.0014 94.6659 12.8514 95.2059 12.5514C95.7459 12.2394 96.1659 11.8014 96.4659 11.2374C96.7779 10.6734 96.9339 10.0314 96.9339 9.31141C96.9339 8.59141 96.7779 7.95541 96.4659 7.40341C96.1659 6.83941 95.7459 6.40141 95.2059 6.08941C94.6659 5.77741 94.0659 5.62141 93.4059 5.62141C92.7339 5.62141 92.1279 5.77741 91.5879 6.08941C91.0599 6.40141 90.6399 6.83941 90.3279 7.40341C90.0279 7.95541 89.8779 8.59141 89.8779 9.31141C89.8779 10.0314 90.0279 10.6734 90.3279 11.2374C90.6399 11.8014 91.0599 12.2394 91.5879 12.5514C92.1279 12.8514 92.7339 13.0014 93.4059 13.0014ZM103.355 14.1354C102.587 14.1354 101.849 14.0274 101.141 13.8114C100.445 13.5834 99.8992 13.3014 99.5032 12.9654L100.079 11.9574C100.475 12.2694 100.973 12.5274 101.573 12.7314C102.173 12.9234 102.797 13.0194 103.445 13.0194C104.309 13.0194 104.945 12.8874 105.353 12.6234C105.773 12.3474 105.983 11.9634 105.983 11.4714C105.983 11.1234 105.869 10.8534 105.641 10.6614C105.413 10.4574 105.125 10.3074 104.777 10.2114C104.429 10.1034 103.967 10.0014 103.391 9.90541C102.623 9.76141 102.005 9.61741 101.537 9.47341C101.069 9.31741 100.667 9.05941 100.331 8.69941C100.007 8.33941 99.8452 7.84141 99.8452 7.20541C99.8452 6.41341 100.175 5.76541 100.835 5.26141C101.495 4.75741 102.413 4.50541 103.589 4.50541C104.201 4.50541 104.813 4.58941 105.425 4.75741C106.037 4.91341 106.541 5.12341 106.937 5.38741L106.379 6.41341C105.599 5.87341 104.669 5.60341 103.589 5.60341C102.773 5.60341 102.155 5.74741 101.735 6.03541C101.327 6.32341 101.123 6.70141 101.123 7.16941C101.123 7.52941 101.237 7.81741 101.465 8.03341C101.705 8.24941 101.999 8.41141 102.347 8.51941C102.695 8.61541 103.175 8.71741 103.787 8.82541C104.543 8.96941 105.149 9.11341 105.605 9.25741C106.061 9.40141 106.451 9.64741 106.775 9.99541C107.099 10.3434 107.261 10.8234 107.261 11.4354C107.261 12.2634 106.913 12.9234 106.217 13.4154C105.533 13.8954 104.579 14.1354 103.355 14.1354ZM118.156 4.57741V14.0454H116.932V12.3174C116.596 12.8934 116.134 13.3434 115.546 13.6674C114.958 13.9794 114.286 14.1354 113.53 14.1354C112.294 14.1354 111.316 13.7934 110.596 13.1094C109.888 12.4134 109.534 11.3994 109.534 10.0674V4.57741H110.812V9.94141C110.812 10.9374 111.058 11.6934 111.55 12.2094C112.042 12.7254 112.744 12.9834 113.656 12.9834C114.652 12.9834 115.438 12.6834 116.014 12.0834C116.59 11.4714 116.878 10.6254 116.878 9.54541V4.57741H118.156ZM133.543 4.50541C134.731 4.50541 135.661 4.84741 136.333 5.53141C137.017 6.21541 137.359 7.22341 137.359 8.55541V14.0454H136.081V8.68141C136.081 7.69741 135.841 6.94741 135.361 6.43141C134.893 5.91541 134.227 5.65741 133.363 5.65741C132.379 5.65741 131.605 5.96341 131.041 6.57541C130.477 7.17541 130.195 8.00941 130.195 9.07741V14.0454H128.917V8.68141C128.917 7.69741 128.677 6.94741 128.197 6.43141C127.729 5.91541 127.057 5.65741 126.181 5.65741C125.209 5.65741 124.435 5.96341 123.859 6.57541C123.295 7.17541 123.013 8.00941 123.013 9.07741V14.0454H121.735V4.57741H122.959V6.30541C123.295 5.72941 123.763 5.28541 124.363 4.97341C124.963 4.66141 125.653 4.50541 126.433 4.50541C127.225 4.50541 127.909 4.67341 128.485 5.00941C129.073 5.34541 129.511 5.84341 129.799 6.50341C130.147 5.87941 130.645 5.39341 131.293 5.04541C131.953 4.68541 132.703 4.50541 133.543 4.50541Z" fill="#FF7A00"/>
</svg>
