<svg width="25" height="29" viewBox="0 0 25 29" fill="none" xmlns="http://www.w3.org/2000/svg">
<path d="M22.3337 12.9533L6.20871 3.60079C5.99117 3.48388 5.75188 3.43194 5.51263 3.44969C5.27337 3.46745 5.04174 3.55434 4.83882 3.70246C4.6359 3.85057 4.46814 4.05521 4.35081 4.29774C4.23348 4.54027 4.17031 4.81298 4.16704 5.09107V23.788C4.16501 24.0735 4.22649 24.3547 4.34555 24.6045C4.4646 24.8544 4.6372 25.0643 4.84667 25.2142C5.05613 25.364 5.29537 25.4486 5.54127 25.4599C5.78717 25.4711 6.0314 25.4086 6.25037 25.2783L22.3337 15.9258C22.5719 15.7871 22.7722 15.5742 22.9122 15.311C23.0522 15.0479 23.1263 14.7447 23.1263 14.4355C23.1263 14.1263 23.0522 13.8231 22.9122 13.56C22.7722 13.2968 22.5719 13.084 22.3337 12.9452V12.9533Z" fill="white"/>
</svg>
